<?xml version="1.0" encoding="UTF-8" standalone="no"?>
<!-- Created with Inkscape (http://www.inkscape.org/) -->

<svg
   width="16.0px"
   height="16.0px"
   viewBox="0 0 16.0 16.0"
   version="1.1"
   id="SVGRoot"
   sodipodi:docname="AnimateStopwatch.svg"
   inkscape:version="1.2.2 (732a01da63, 2022-12-09)"
   inkscape:export-filename="AnimateBool16.png"
   inkscape:export-xdpi="96"
   inkscape:export-ydpi="96"
   xml:space="preserve"
   xmlns:inkscape="http://www.inkscape.org/namespaces/inkscape"
   xmlns:sodipodi="http://sodipodi.sourceforge.net/DTD/sodipodi-0.dtd"
   xmlns="http://www.w3.org/2000/svg"
   xmlns:svg="http://www.w3.org/2000/svg"><sodipodi:namedview
     id="namedview261"
     pagecolor="#ffffff"
     bordercolor="#666666"
     borderopacity="1.0"
     inkscape:showpageshadow="2"
     inkscape:pageopacity="0.0"
     inkscape:pagecheckerboard="0"
     inkscape:deskcolor="#d1d1d1"
     inkscape:document-units="px"
     showgrid="true"
     inkscape:zoom="31.833333"
     inkscape:cx="10.052356"
     inkscape:cy="7.9790576"
     inkscape:window-width="2560"
     inkscape:window-height="1009"
     inkscape:window-x="-8"
     inkscape:window-y="-8"
     inkscape:window-maximized="1"
     inkscape:current-layer="layer1"><inkscape:grid
       type="xygrid"
       id="grid384" /></sodipodi:namedview><defs
     id="defs256" /><g
     inkscape:label="Warstwa 1"
     inkscape:groupmode="layer"
     id="layer1"><path
       id="path15393"
       style="fill:#424242;stroke:none;stroke-width:1px;stroke-linecap:butt;stroke-linejoin:miter;stroke-opacity:1;fill-opacity:1"
       d="M 1 1 L 1 8 L 2 8 L 2 7 L 5 7 L 5 8 L 6 8 L 6 1 L 5 1 L 5 2 L 2 2 L 2 1 L 1 1 z M 2 3 L 5 3 L 5 6 L 2 6 L 2 3 z " /><path
       id="path21394"
       style="fill:#c27d1a;fill-opacity:1;stroke:none;stroke-width:1px;stroke-linecap:butt;stroke-linejoin:miter;stroke-opacity:1"
       d="m 1,10 -1,1 v 3 l 1,1 H 2 L 3,14 V 11 L 2,10 Z m 0,1 h 1 v 3 H 1 Z" /><path
       id="path21394-7"
       style="fill:#c27d1a;fill-opacity:1;stroke:none;stroke-width:1px;stroke-linecap:butt;stroke-linejoin:miter;stroke-opacity:1"
       d="m 7,10 -1,1 v 3 l 1,1 H 8 L 9,14 V 11 L 8,10 Z m 0,1 h 1 v 3 H 7 Z" /><rect
       style="fill:#c27d1a;fill-opacity:1;stroke:none;stroke-width:1;stroke-linecap:square;stroke-linejoin:miter;stroke-dasharray:none;stroke-dashoffset:0.5;stroke-opacity:1"
       id="rect21399"
       width="1"
       height="2"
       x="4.000001"
       y="10" /><path
       id="path21423"
       style="fill:#c27d1a;fill-opacity:1;stroke:none;stroke-width:1px;stroke-linecap:butt;stroke-linejoin:miter;stroke-opacity:1"
       d="m 11,10 -1,1 v 3 l 1,1 h 1 l 1,-1 v -3 l -1,-1 z m 0,1 h 1 v 3 h -1 z" /><rect
       style="fill:#c27d1a;fill-opacity:1;stroke:none;stroke-width:1;stroke-linecap:square;stroke-linejoin:miter;stroke-dasharray:none;stroke-dashoffset:0.5;stroke-opacity:1"
       id="rect21425"
       width="2"
       height="2"
       x="14"
       y="10" /></g></svg>
