<?xml version="1.0" encoding="UTF-8" standalone="no"?>
<!-- Created with Inkscape (http://www.inkscape.org/) -->

<svg
   width="16.0px"
   height="16.0px"
   viewBox="0 0 16.0 16.0"
   version="1.1"
   id="SVGRoot"
   sodipodi:docname="SvgImage.svg"
   inkscape:version="1.2.2 (732a01da63, 2022-12-09)"
   inkscape:export-filename="SvgImage16.png"
   inkscape:export-xdpi="96"
   inkscape:export-ydpi="96"
   xml:space="preserve"
   xmlns:inkscape="http://www.inkscape.org/namespaces/inkscape"
   xmlns:sodipodi="http://sodipodi.sourceforge.net/DTD/sodipodi-0.dtd"
   xmlns="http://www.w3.org/2000/svg"
   xmlns:svg="http://www.w3.org/2000/svg"><sodipodi:namedview
     id="namedview261"
     pagecolor="#ffffff"
     bordercolor="#666666"
     borderopacity="1.0"
     inkscape:showpageshadow="2"
     inkscape:pageopacity="0.0"
     inkscape:pagecheckerboard="0"
     inkscape:deskcolor="#d1d1d1"
     inkscape:document-units="px"
     showgrid="true"
     inkscape:zoom="38.057741"
     inkscape:cx="8.0404142"
     inkscape:cy="9.8797246"
     inkscape:window-width="2560"
     inkscape:window-height="1009"
     inkscape:window-x="-8"
     inkscape:window-y="-8"
     inkscape:window-maximized="1"
     inkscape:current-layer="layer1"><inkscape:grid
       type="xygrid"
       id="grid384" /></sodipodi:namedview><defs
     id="defs256" /><g
     inkscape:label="Warstwa 1"
     inkscape:groupmode="layer"
     id="layer1"><rect
       style="fill:none;fill-opacity:1;stroke:#424242;stroke-width:1;stroke-linecap:square;stroke-linejoin:miter;stroke-dashoffset:0.5;stroke-opacity:1;stroke-dasharray:none"
       id="rect5345"
       width="13"
       height="12"
       x="1.5"
       y="2.5" /><path
       id="rect12142"
       style="fill:#a1260d;fill-opacity:1;stroke:none;stroke-width:1;stroke-linecap:square;stroke-linejoin:miter;stroke-dasharray:none;stroke-dashoffset:0.5;stroke-opacity:1"
       d="M 3 7 L 3 13 L 9 13 L 9 7 L 3 7 z M 4 8 L 8 8 L 8 12 L 4 12 L 4 8 z " /><path
       id="path12207"
       style="fill:#00539c;fill-opacity:1;stroke:none;stroke-width:1;stroke-linecap:square;stroke-linejoin:miter;stroke-dasharray:none;stroke-dashoffset:0.5;stroke-opacity:1"
       d="M 9 4 A 4 4 0 0 0 5 8 A 4 4 0 0 0 9 12 A 4 4 0 0 0 13 8 A 4 4 0 0 0 9 4 z M 9 5 A 3 3 0 0 1 12 8 A 3 3 0 0 1 9 11 A 3 3 0 0 1 6 8 A 3 3 0 0 1 9 5 z " /></g></svg>
